<svg xmlns="http://www.w3.org/2000/svg" xmlns:xlink="http://www.w3.org/1999/xlink" width="500" zoomAndPan="magnify" viewBox="0 0 375 374.999991" height="500" preserveAspectRatio="xMidYMid meet" version="1.0"><defs><g/></defs><g fill="#64ffda" fill-opacity="1"><g transform="translate(8.553445, 225.616644)"><g><path d="M 107.828125 -18.3125 L 107.828125 -2.21875 L 9.65625 -43.859375 L 9.65625 -57.9375 L 107.828125 -99.578125 L 107.828125 -83.484375 L 29.375 -50.890625 Z M 107.828125 -18.3125 "/></g></g></g><g fill="#64ffda" fill-opacity="1"><g transform="translate(126.039852, 225.616644)"><g><path d="M 109.84375 -74.84375 L 109.84375 0 L 81.671875 0 L 81.671875 -67.796875 C 81.671875 -73.691406 80.09375 -78.21875 76.9375 -81.375 C 73.789062 -84.53125 69.269531 -86.109375 63.375 -86.109375 C 56.800781 -86.109375 51.46875 -83.960938 47.375 -79.671875 C 43.28125 -75.378906 41.234375 -69.539062 41.234375 -62.15625 L 41.234375 0 L 13.078125 0 L 13.078125 -107.03125 L 40.03125 -107.03125 L 40.03125 -91.328125 L 40.4375 -91.328125 C 43.789062 -97.628906 48.21875 -102.289062 53.71875 -105.3125 C 59.21875 -108.332031 65.519531 -109.84375 72.625 -109.84375 C 80 -109.84375 86.503906 -108.332031 92.140625 -105.3125 C 97.773438 -102.289062 102.132812 -98.128906 105.21875 -92.828125 C 108.300781 -87.535156 109.84375 -81.539062 109.84375 -74.84375 Z M 109.84375 -74.84375 "/></g></g></g><g fill="#64ffda" fill-opacity="1"><g transform="translate(248.960131, 225.616644)"><g><path d="M 107.828125 -43.859375 L 9.65625 -2.21875 L 9.65625 -18.3125 L 88.109375 -50.890625 L 9.65625 -83.484375 L 9.65625 -99.578125 L 107.828125 -57.9375 Z M 107.828125 -43.859375 "/></g></g></g></svg>